<svg width="200" height="200" viewBox="0 0 200 200" fill="none" xmlns="http://www.w3.org/2000/svg">
<rect width="200" height="200" fill="#E788FF"/>
<rect width="47.2" height="57.2" transform="matrix(4.37114e-08 -1 -1 -4.37114e-08 131.6 154.348)" fill="#E3CDFF"/>
<path d="M99.2516 115.626L99.2516 84.9162L150.8 112.336L150.8 145.239L99.2516 115.626Z" fill="#511B98"/>
<path d="M150.8 146.336L150.8 115.626L99.2516 143.045L99.2516 175.948L150.8 146.336Z" fill="#903BFC"/>
<path d="M100.348 115.626L100.348 84.9162L48.8 112.336L48.8 145.239L100.348 115.626Z" fill="#AD6DFF"/>
<path d="M48.8 146.336L48.8 115.626L100.348 143.045L100.348 175.948L48.8 146.336Z" fill="#894BD9"/>
<rect width="47.2" height="57.2" transform="matrix(4.37114e-08 -1 -1 -4.37114e-08 131.6 93.8323)" fill="#E3CDFF"/>
<path d="M99.2516 55.1097L99.2516 24.4L150.8 51.8194L150.8 84.7226L99.2516 55.1097Z" fill="#511B98"/>
<path d="M150.8 85.8194L150.8 55.1097L99.2516 82.5291L99.2516 115.432L150.8 85.8194Z" fill="#903BFC"/>
<path d="M100.348 55.1097L100.348 24.4L48.8 51.8194L48.8 84.7226L100.348 55.1097Z" fill="#AD6DFF"/>
<path d="M48.8 85.8194L48.8 55.1097L100.348 82.5291L100.348 115.432L48.8 85.8194Z" fill="#894BD9"/>
</svg>
